<svg width="106" height="22" viewBox="0 0 106 22" fill="none" xmlns="http://www.w3.org/2000/svg">
<g clip-path="url(#clip0_1660_11)">
<path d="M23.1745 20.9418H31.1696L11.3641 1.13617H3.3689L23.1745 20.9418Z" fill="url(#paint0_linear_1660_11)"/>
<path d="M15 1L35 21V1H29.5876V7.31438L23.2732 1L15 1Z" fill="#6A3093"/>
<path d="M0.0219727 1.79919V20.9417H5.18864V14.9139L11.2164 20.9417H19.1645L0.0219727 1.79919Z" fill="#6A3093"/>
</g>
<path d="M38.63 21V6.27273H42.7145V21H38.63ZM40.6818 4.37429C40.0746 4.37429 39.5536 4.17294 39.119 3.77024C38.6907 3.36115 38.4766 2.87216 38.4766 2.30327C38.4766 1.74077 38.6907 1.25817 39.119 0.855469C39.5536 0.446377 40.0746 0.241831 40.6818 0.241831C41.2891 0.241831 41.8068 0.446377 42.2351 0.855469C42.6697 1.25817 42.8871 1.74077 42.8871 2.30327C42.8871 2.87216 42.6697 3.36115 42.2351 3.77024C41.8068 4.17294 41.2891 4.37429 40.6818 4.37429ZM50.0709 12.4858V21H45.9864V6.27273H49.8792V8.87109H50.0518C50.3778 8.01456 50.9243 7.337 51.6913 6.83842C52.4584 6.33345 53.3884 6.08097 54.4814 6.08097C55.5042 6.08097 56.3959 6.30469 57.1565 6.75213C57.9172 7.19957 58.5084 7.83878 58.9303 8.66974C59.3522 9.49432 59.5631 10.4787 59.5631 11.6229V21H55.4786V12.3516C55.485 11.4503 55.2549 10.7472 54.7883 10.2422C54.3216 9.73082 53.6792 9.47514 52.8611 9.47514C52.3113 9.47514 51.8256 9.59339 51.4037 9.8299C50.9882 10.0664 50.6622 10.4116 50.4257 10.8654C50.1956 11.3129 50.0773 11.853 50.0709 12.4858ZM68.2092 21.2397C67.0906 21.2397 66.0774 20.9521 65.1697 20.3768C64.2685 19.7951 63.5526 18.9418 63.022 17.8168C62.4979 16.6854 62.2358 15.2983 62.2358 13.6555C62.2358 11.968 62.5075 10.565 63.0508 9.44638C63.5941 8.32138 64.3164 7.48082 65.2177 6.92472C66.1254 6.36222 67.1193 6.08097 68.1996 6.08097C69.0241 6.08097 69.7113 6.22159 70.261 6.50284C70.8171 6.7777 71.2646 7.12287 71.6033 7.53835C71.9485 7.94744 72.2106 8.35014 72.3896 8.74645H72.5142V1.36364H76.5891V21H72.5621V18.6413H72.3896C72.1978 19.0504 71.9261 19.4563 71.5746 19.859C71.2294 20.2553 70.7788 20.5845 70.2227 20.8466C69.6729 21.1087 69.0018 21.2397 68.2092 21.2397ZM69.5036 17.9893C70.1619 17.9893 70.718 17.8104 71.1719 17.4524C71.6321 17.0881 71.9837 16.5799 72.2266 15.9279C72.4759 15.2759 72.6005 14.5121 72.6005 13.6364C72.6005 12.7607 72.479 12 72.2362 11.3544C71.9933 10.7088 71.6417 10.2102 71.1815 9.85866C70.7212 9.5071 70.1619 9.33132 69.5036 9.33132C68.8324 9.33132 68.2667 9.51349 67.8065 9.87784C67.3462 10.2422 66.9979 10.7472 66.7614 11.3928C66.5249 12.0384 66.4066 12.7862 66.4066 13.6364C66.4066 14.4929 66.5249 15.2504 66.7614 15.9087C67.0043 16.5607 67.3526 17.0721 67.8065 17.4428C68.2667 17.8072 68.8324 17.9893 69.5036 17.9893ZM86.659 21.2876C85.1441 21.2876 83.8401 20.9808 82.7471 20.3672C81.6604 19.7472 80.8231 18.8714 80.235 17.7401C79.6469 16.6023 79.3529 15.2567 79.3529 13.7035C79.3529 12.1886 79.6469 10.859 80.235 9.71484C80.8231 8.57067 81.6508 7.67898 82.7183 7.03977C83.7922 6.40057 85.0514 6.08097 86.496 6.08097C87.4676 6.08097 88.3721 6.23757 89.2094 6.55078C90.0532 6.8576 90.7883 7.32102 91.4147 7.94105C92.0475 8.56108 92.5397 9.34091 92.8912 10.2805C93.2428 11.2138 93.4186 12.3068 93.4186 13.5597V14.6815H80.9829V12.1502H89.5738C89.5738 11.5621 89.4459 11.0412 89.1903 10.5874C88.9346 10.1335 88.5798 9.77876 88.126 9.52308C87.6785 9.26101 87.1576 9.12997 86.5631 9.12997C85.9431 9.12997 85.3934 9.27379 84.914 9.56143C84.441 9.84268 84.0702 10.223 83.8018 10.7024C83.5333 11.1754 83.3959 11.7028 83.3895 12.2844V14.6911C83.3895 15.4197 83.5237 16.0494 83.7922 16.5799C84.067 17.1104 84.4537 17.5195 84.9523 17.8072C85.4509 18.0948 86.0422 18.2386 86.7261 18.2386C87.18 18.2386 87.5954 18.1747 87.9726 18.0469C88.3497 17.919 88.6725 17.7273 88.941 17.4716C89.2094 17.2159 89.414 16.9027 89.5546 16.532L93.3323 16.7812C93.1405 17.6889 92.7474 18.4815 92.153 19.1591C91.5649 19.8303 90.8042 20.3544 89.871 20.7315C88.9442 21.1023 87.8735 21.2876 86.659 21.2876ZM96.0841 21V6.27273H100.044V8.84233H100.197C100.466 7.92827 100.916 7.23793 101.549 6.77131C102.182 6.2983 102.911 6.06179 103.735 6.06179C103.94 6.06179 104.16 6.07457 104.397 6.10014C104.633 6.12571 104.841 6.16087 105.02 6.20561V9.8299C104.828 9.77237 104.563 9.72124 104.224 9.67649C103.886 9.63175 103.576 9.60938 103.294 9.60938C102.693 9.60938 102.157 9.74041 101.684 10.0025C101.217 10.2582 100.846 10.6161 100.571 11.0763C100.303 11.5366 100.169 12.0671 100.169 12.668V21H96.0841Z" fill="#333333"/>
<defs>
<linearGradient id="paint0_linear_1660_11" x1="3.3689" y1="11.039" x2="31.1696" y2="11.039" gradientUnits="userSpaceOnUse">
<stop stop-color="#6A3093"/>
<stop offset="1" stop-color="#A044FF"/>
</linearGradient>
<clipPath id="clip0_1660_11">
<rect width="35" height="20" fill="white" transform="translate(0 1)"/>
</clipPath>
</defs>
</svg>
