<svg width="105" height="22" viewBox="0 0 105 22" fill="none" xmlns="http://www.w3.org/2000/svg">
<g clip-path="url(#clip0_1661_14)">
<path d="M23.1745 20.9418H31.1696L11.3641 1.13617H3.3689L23.1745 20.9418Z" fill="url(#paint0_linear_1661_14)"/>
<path d="M0.0219727 1.79919V20.9417H5.18864V14.9139L11.2164 20.9417H19.1645L0.0219727 1.79919Z" fill="#6A3093"/>
<path d="M13.9612 -0.964431L35.0388 21.9644L34.9611 -1.03543L29.2781 -1.01622L29.3027 6.24528L22.648 -0.993801L13.9612 -0.964431Z" fill="#6A3093"/>
</g>
<path d="M37.63 21V6.27273H41.7145V21H37.63ZM39.6818 4.37429C39.0746 4.37429 38.5536 4.17294 38.119 3.77024C37.6907 3.36115 37.4766 2.87216 37.4766 2.30327C37.4766 1.74077 37.6907 1.25817 38.119 0.855469C38.5536 0.446377 39.0746 0.241831 39.6818 0.241831C40.2891 0.241831 40.8068 0.446377 41.2351 0.855469C41.6697 1.25817 41.8871 1.74077 41.8871 2.30327C41.8871 2.87216 41.6697 3.36115 41.2351 3.77024C40.8068 4.17294 40.2891 4.37429 39.6818 4.37429ZM49.0709 12.4858V21H44.9864V6.27273H48.8792V8.87109H49.0518C49.3778 8.01456 49.9243 7.337 50.6913 6.83842C51.4584 6.33345 52.3884 6.08097 53.4814 6.08097C54.5042 6.08097 55.3959 6.30469 56.1565 6.75213C56.9172 7.19957 57.5084 7.83878 57.9303 8.66974C58.3522 9.49432 58.5631 10.4787 58.5631 11.6229V21H54.4786V12.3516C54.485 11.4503 54.2549 10.7472 53.7883 10.2422C53.3216 9.73082 52.6792 9.47514 51.8611 9.47514C51.3113 9.47514 50.8256 9.59339 50.4037 9.8299C49.9882 10.0664 49.6622 10.4116 49.4257 10.8654C49.1956 11.3129 49.0773 11.853 49.0709 12.4858ZM67.2092 21.2397C66.0906 21.2397 65.0774 20.9521 64.1697 20.3768C63.2685 19.7951 62.5526 18.9418 62.022 17.8168C61.4979 16.6854 61.2358 15.2983 61.2358 13.6555C61.2358 11.968 61.5075 10.565 62.0508 9.44638C62.5941 8.32138 63.3164 7.48082 64.2177 6.92472C65.1254 6.36222 66.1193 6.08097 67.1996 6.08097C68.0241 6.08097 68.7113 6.22159 69.261 6.50284C69.8171 6.7777 70.2646 7.12287 70.6033 7.53835C70.9485 7.94744 71.2106 8.35014 71.3896 8.74645H71.5142V1.36364H75.5891V21H71.5621V18.6413H71.3896C71.1978 19.0504 70.9261 19.4563 70.5746 19.859C70.2294 20.2553 69.7788 20.5845 69.2227 20.8466C68.6729 21.1087 68.0018 21.2397 67.2092 21.2397ZM68.5036 17.9893C69.1619 17.9893 69.718 17.8104 70.1719 17.4524C70.6321 17.0881 70.9837 16.5799 71.2266 15.9279C71.4759 15.2759 71.6005 14.5121 71.6005 13.6364C71.6005 12.7607 71.479 12 71.2362 11.3544C70.9933 10.7088 70.6417 10.2102 70.1815 9.85866C69.7212 9.5071 69.1619 9.33132 68.5036 9.33132C67.8324 9.33132 67.2667 9.51349 66.8065 9.87784C66.3462 10.2422 65.9979 10.7472 65.7614 11.3928C65.5249 12.0384 65.4066 12.7862 65.4066 13.6364C65.4066 14.4929 65.5249 15.2504 65.7614 15.9087C66.0043 16.5607 66.3526 17.0721 66.8065 17.4428C67.2667 17.8072 67.8324 17.9893 68.5036 17.9893ZM85.659 21.2876C84.1441 21.2876 82.8401 20.9808 81.7471 20.3672C80.6604 19.7472 79.8231 18.8714 79.235 17.7401C78.6469 16.6023 78.3529 15.2567 78.3529 13.7035C78.3529 12.1886 78.6469 10.859 79.235 9.71484C79.8231 8.57067 80.6508 7.67898 81.7183 7.03977C82.7922 6.40057 84.0514 6.08097 85.496 6.08097C86.4676 6.08097 87.3721 6.23757 88.2094 6.55078C89.0532 6.8576 89.7883 7.32102 90.4147 7.94105C91.0475 8.56108 91.5397 9.34091 91.8912 10.2805C92.2428 11.2138 92.4186 12.3068 92.4186 13.5597V14.6815H79.9829V12.1502H88.5738C88.5738 11.5621 88.4459 11.0412 88.1903 10.5874C87.9346 10.1335 87.5798 9.77876 87.126 9.52308C86.6785 9.26101 86.1576 9.12997 85.5631 9.12997C84.9431 9.12997 84.3934 9.27379 83.914 9.56143C83.441 9.84268 83.0702 10.223 82.8018 10.7024C82.5333 11.1754 82.3959 11.7028 82.3895 12.2844V14.6911C82.3895 15.4197 82.5237 16.0494 82.7922 16.5799C83.067 17.1104 83.4537 17.5195 83.9523 17.8072C84.4509 18.0948 85.0422 18.2386 85.7261 18.2386C86.18 18.2386 86.5954 18.1747 86.9726 18.0469C87.3497 17.919 87.6725 17.7273 87.941 17.4716C88.2094 17.2159 88.414 16.9027 88.5546 16.532L92.3323 16.7812C92.1405 17.6889 91.7474 18.4815 91.153 19.1591C90.5649 19.8303 89.8042 20.3544 88.871 20.7315C87.9442 21.1023 86.8735 21.2876 85.659 21.2876ZM95.0841 21V6.27273H99.0439V8.84233H99.1974C99.4658 7.92827 99.9165 7.23793 100.549 6.77131C101.182 6.2983 101.911 6.06179 102.735 6.06179C102.94 6.06179 103.16 6.07457 103.397 6.10014C103.633 6.12571 103.841 6.16087 104.02 6.20561V9.8299C103.828 9.77237 103.563 9.72124 103.224 9.67649C102.886 9.63175 102.576 9.60938 102.294 9.60938C101.693 9.60938 101.157 9.74041 100.684 10.0025C100.217 10.2582 99.8461 10.6161 99.5713 11.0763C99.3028 11.5366 99.1686 12.0671 99.1686 12.668V21H95.0841Z" fill="#333333"/>
<defs>
<linearGradient id="paint0_linear_1661_14" x1="3.3689" y1="11.039" x2="31.1696" y2="11.039" gradientUnits="userSpaceOnUse">
<stop stop-color="#6A3093"/>
<stop offset="1" stop-color="#A044FF"/>
</linearGradient>
<clipPath id="clip0_1661_14">
<rect width="35" height="20" fill="white" transform="translate(0 1)"/>
</clipPath>
</defs>
</svg>
